PathFileType	4	(X/Y/Z)	C:\Users\WrightLab\Desktop\Jo\P1_boxCal6.trc
DataRate	CameraRate	NumFrames	NumMarkers	Units	OrigDataRate	OrigDataStartFrame	OrigNumFrames
100.00	100.00	       41	19	mm	100.00	1	       739
Frame#	Time	Headset_Front			Headset_Back			Headset_Left			Headset_Right			Left_Shoulder			Right_Shoulder			Sternum			C7			Left Elbow			Right Elbow			Left Wrist			Right Wrist			Left ASIS			Right ASIS			S2			Left Knee			Right Knee			Left Ankle			Right Ankle			
		X1	Y1	Z1	X2	Y2	Z2	X3	Y3	Z3	X4	Y4	Z4	X5	Y5	Z5	X6	Y6	Z6	X7	Y7	Z7	X8	Y8	Z8	X9	Y9	Z9	X10	Y10	Z10	X11	Y11	Z11	X12	Y12	Z12	X13	Y13	Z13	X14	Y14	Z14	X15	Y15	Z15	X16	Y16	Z16	X17	Y17	Z17	X18	Y18	Z18	X19	Y19	Z19	

1	0.000				-517.59943	406.79593	-1594.67615																						-634.96985	965.83289	-1602.18945	-68.92383	725.16205	-1526.44849	-631.65363	725.11938	-1507.22388										-163.83624	412.42279	-1596.64099	-491.03461	43.20431	-1629.98975							
2	0.010				-517.62061	406.71722	-1594.76636																						-636.02515	966.35474	-1602.82300	-69.60994	725.50122	-1525.79065	-633.69214	722.86133	-1514.51990										-164.48955	412.81036	-1595.25598	-491.07358	43.11672	-1630.17676							
3	0.020				-518.13818	406.66562	-1593.04187																						-637.23181	965.88416	-1601.87207	-71.34692	725.42096	-1524.48962	-633.41949	724.58154	-1506.93079										-164.65775	413.12244	-1594.57605	-491.55750	43.50780	-1627.68970							
4	0.030				-518.22717	406.46777	-1593.45349																						-638.21277	965.87799	-1602.29712	-72.39146	725.87244	-1522.74780	-635.50323	721.43146	-1511.87427										-165.28912	413.28842	-1593.46680	-491.59412	43.43119	-1627.86707							
5	0.040				-518.91357	406.97986	-1591.22742																						-638.92633	966.53412	-1604.06299	-73.11070	726.16443	-1522.05115	-635.78027	723.52502	-1505.39648										-165.50883	412.93912	-1592.10217	-491.64526	43.26028	-1628.09741							
6	0.050				-519.09778	406.54697	-1592.07227																						-641.38501	965.84930	-1601.72229	-73.77286	726.40979	-1521.41064	-637.79425	722.24561	-1509.49927										-165.33199	413.29199	-1590.73999	-491.64249	43.27552	-1628.08643							
7	0.060				-519.45239	405.87637	-1593.73877																						-642.59314	964.69330	-1599.71338	-74.80135	726.84241	-1520.16516	-638.45880	723.54852	-1505.55261										-165.51256	413.73639	-1589.68567	-491.64999	43.25609	-1628.12183							
8	0.070				-520.30151	406.05161	-1593.60645																						-643.74847	963.63153	-1597.74573	-76.09421	726.62793	-1518.13696	-640.36646	721.45929	-1512.45471										-166.09494	413.55734	-1588.51868	-491.71384	43.11076	-1628.42761							
9	0.080				-521.96069	405.89743	-1589.69922																						-644.43353	963.56226	-1597.86328	-77.80630	727.06171	-1516.58569	-640.46735	723.19794	-1505.85120										-166.16002	413.71753	-1587.94543	-491.75278	42.99369	-1628.60645							
10	0.090				-522.32599	405.21634	-1591.41418																						-644.58496	964.43182	-1599.83496	-78.13190	727.28632	-1516.08484	-641.20099	723.08105	-1506.13855										-166.54800	413.69998	-1586.51538	-491.76416	42.95390	-1628.65735							
11	0.100				-522.66248	404.58051	-1592.99146																						-645.72101	964.12054	-1599.23010	-79.12659	727.80573	-1515.28967	-642.60352	723.38348	-1506.52075										-167.44070	413.07632	-1584.76196	-491.74863	42.97260	-1628.57837							
12	0.110				-523.53552	405.21158	-1591.39929																						-647.78967	963.51105	-1597.01074	-79.80385	728.04877	-1514.28503	-644.03674	723.01001	-1505.52478										-167.42506	413.11185	-1584.20874	-491.81985	42.82980	-1628.92480							
13	0.120				-523.92627	403.90308	-1592.23950																						-648.87860	963.05914	-1596.15869	-80.66561	728.07727	-1513.12036	-644.65302	722.77771	-1505.76404										-167.53107	413.20160	-1583.72485	-491.80518	42.80417	-1628.83850							
14	0.130				-524.20746	403.31128	-1593.54126																						-649.71997	963.17706	-1596.76526	-81.95070	728.56989	-1512.17090	-645.72406	721.56116	-1503.91357										-168.20438	413.80280	-1582.63208	-491.80566	42.78694	-1628.83643							
15	0.140				-524.52625	402.70490	-1595.03333																						-650.38220	963.27106	-1597.11987	-83.06339	728.25616	-1509.96826	-646.60724	721.96100	-1504.80151										-169.31897	413.26999	-1581.06177	-491.88800	42.60172	-1629.23145							
16	0.150				-524.94318	401.83044	-1596.96350																						-650.71490	964.21198	-1599.16492	-84.98952	727.83466	-1507.83533	-647.41260	721.82391	-1505.24927										-169.26044	413.31085	-1580.16992	-491.90875	42.51427	-1629.31995							
17	0.160				-525.37787	400.42606	-1598.00635																						-651.58850	964.11285	-1598.98547	-84.67602	728.45801	-1508.48462	-648.67053	721.12177	-1504.20105										-170.41721	412.68805	-1578.81812	-491.94717	42.40675	-1629.49854							
18	0.170				-527.27319	401.87006	-1591.62610																						-652.42188	963.88513	-1598.55127	-85.51452	728.91498	-1508.38306	-650.27161	720.44391	-1503.03406										-170.65091	412.84006	-1578.16211	-492.47919	42.71401	-1627.25012							
19	0.180				-527.69800	401.11945	-1591.46851																						-654.44202	962.81018	-1595.70911	-86.42072	728.84039	-1507.56006	-651.10864	720.58643	-1503.46191										-170.84119	412.98486	-1577.59192	-492.52237	42.60726	-1627.45459							
20	0.190				-527.82904	400.77670	-1592.05664																						-655.42444	961.73938	-1593.92993	-87.31881	728.82220	-1506.70007	-651.74768	719.89044	-1502.85352										-170.96411	412.96152	-1577.00537	-492.53510	42.55046	-1627.50806							
21	0.200				-527.92993	400.52463	-1592.51221																						-655.94812	961.60925	-1594.11243	-88.82823	729.00079	-1505.86047	-652.57605	719.40466	-1502.34619										-171.31119	412.52826	-1575.50781	-492.58932	42.41403	-1627.76404							
22	0.210				-528.03259	400.27728	-1592.97827																						-656.99695	960.45490	-1592.49146	-90.23778	728.92480	-1505.05566	-653.06409	719.28357	-1502.61975										-171.95470	412.20520	-1574.50012	-492.63474	42.29160	-1627.97620							
23	0.220				-529.52667	402.06931	-1586.33972																						-657.56812	960.18140	-1592.77283	-90.14448	729.03229	-1505.54419	-654.72961	716.78705	-1508.24048										-172.05373	412.22379	-1574.04333	-492.70291	41.36798	-1627.68640							
24	0.230				-529.52826	402.06821	-1586.34729																						-657.62286	961.13403	-1595.84241	-91.41432	728.88544	-1504.98914	-654.38104	718.65167	-1502.56628										-172.76070	412.34674	-1571.96851	-492.65756	41.43679	-1627.46008							
25	0.240				-529.91650	401.99902	-1584.48474																						-658.63226	960.49829	-1595.50415	-92.46136	728.71259	-1504.51501	-655.71240	717.16632	-1508.40967										-173.02159	411.97549	-1570.59241	-492.57733	41.55032	-1627.05762							
26	0.250				-529.97278	401.92560	-1584.75500																						-659.56641	959.81342	-1595.04541	-92.56757	728.80627	-1504.89954	-656.65997	717.82166	-1506.38074										-173.06554	411.55042	-1569.98486	-492.53778	41.64466	-1626.86938							
27	0.260				-530.09290	401.72452	-1585.32043																						-660.40710	959.22510	-1594.77734	-93.11845	728.72247	-1505.03601	-658.30029	718.53876	-1502.18323										-172.87868	411.78741	-1568.87317	-492.19058	40.33305	-1628.03125							
28	0.270				-530.25262	401.47705	-1586.07764																						-661.99561	957.97949	-1592.43713	-94.41821	728.42621	-1505.02283	-657.96942	717.54224	-1502.21045										-172.90154	411.92014	-1568.43323	-492.18332	40.33524	-1627.99268							
29	0.280				-531.26099	401.83658	-1584.97058																						-662.92151	956.83112	-1591.03479	-95.15996	727.61237	-1502.73987	-658.77716	716.80542	-1501.85352										-173.76981	412.01816	-1565.46130	-492.21005	40.29589	-1628.12634							
30	0.290				-532.11511	403.29269	-1584.57397																						-662.37604	958.33392	-1595.26331	-96.15868	727.92468	-1502.81140	-659.31976	716.59338	-1502.29993										-174.08984	412.23373	-1564.29346	-492.23575	40.25597	-1628.25439							
31	0.300				-532.64398	402.36746	-1585.14417																						-663.01135	958.09528	-1595.45789	-97.08051	727.99622	-1502.60168	-659.91003	716.33929	-1502.79675										-174.38734	411.79453	-1562.56506	-492.24634	40.21339	-1628.30029							
32	0.310				-533.01624	401.74362	-1586.89331							-198.59535	1237.67883	-1602.13110													-663.72180	957.80975	-1595.56543	-97.41407	728.09100	-1502.77258	-660.77075	714.97437	-1501.34009										-174.48140	412.06656	-1561.40942	-492.24097	40.22065	-1628.27319							
33	0.320				-534.36169	401.35999	-1582.74255							-199.25343	1237.76660	-1601.89197													-664.43018	957.56488	-1595.64514	-98.08015	727.67102	-1502.04456	-662.55994	712.06537	-1509.71802										-174.40904	411.61890	-1558.97388	-492.28433	40.12224	-1628.48120							
34	0.330				-535.07678	401.89584	-1582.40247							-200.40979	1237.98535	-1601.66296													-665.15869	957.40765	-1595.87903	-98.80079	727.30157	-1501.24182	-663.46173	711.75775	-1508.41052										-175.04149	410.98886	-1556.81970	-492.28516	40.08685	-1628.47632							
35	0.340				-535.36334	401.29388	-1583.71594							-201.09015	1237.36267	-1599.86206													-665.96649	957.29565	-1596.11047	-99.82121	727.61554	-1501.07471	-662.62250	713.83099	-1501.60864										-174.90805	411.23715	-1554.70972	-492.27313	40.08026	-1628.40979							
36	0.350				-536.29089	401.92880	-1581.71997							-202.44041	1237.60291	-1599.74524	-581.97009	1230.31860	-1563.64526										-666.83258	957.23651	-1596.40662	-100.80775	727.61194	-1500.74805	-663.52069	713.61401	-1501.86389										-175.23422	410.89963	-1551.70410	-492.32474	39.98050	-1628.66162	-156.52274	59.92330	-1659.63721				
37	0.360				-536.55219	400.73108	-1581.91431							-203.03682	1237.68567	-1599.52258	-583.01379	1228.89465	-1560.79419										-667.74329	957.20905	-1596.78601	-102.27270	726.79266	-1498.91772	-664.40857	713.40662	-1502.04028										-175.35405	410.30206	-1549.58044	-492.27155	40.06139	-1628.39624	-155.80702	61.06664	-1659.67651				
38	0.370				-536.68927	400.42325	-1582.53699							-204.43599	1237.20117	-1597.90210	-583.71136	1228.93860	-1561.39624										-668.73871	957.07898	-1597.00830	-102.89064	726.80450	-1498.61597	-664.98639	713.15717	-1502.58289										-175.13652	410.37186	-1547.01038	-492.15387	40.23156	-1627.80676	-156.53731	61.26642	-1659.18542				
39	0.380				-536.82349	400.08255	-1583.13672							-205.22380	1236.72229	-1596.52112	-584.72681	1228.81384	-1561.38110										-669.74127	956.50500	-1596.38171	-103.51050	726.70758	-1498.29626	-665.90320	712.59131	-1502.41333										-174.85068	410.65259	-1545.22827	-492.15881	40.22426	-1627.83142	-156.38174	63.09135	-1659.48730				
40	0.390				-536.97827	399.66464	-1583.82141							-205.79941	1236.76086	-1596.49377	-585.37384	1227.99182	-1560.24683										-670.64825	955.77905	-1595.51880	-104.07500	726.67023	-1497.93542	-667.71124	711.11682	-1504.90405										-174.77028	410.31677	-1543.00659	-492.07687	40.33467	-1627.41882	-156.22879	63.29627	-1658.87708				
41	0.400				-537.51611	399.15094	-1582.62000							-206.29208	1235.91211	-1594.50134	-586.76849	1228.03369	-1560.29626										-671.55780	955.07605	-1594.79016	-105.16811	725.97412	-1496.82910	-668.52386	710.03821	-1508.35120										-175.31528	410.52914	-1540.75964	-492.00748	40.41062	-1627.06458	-156.47441	63.54338	-1658.63586				
